<mxfile host="app.diagrams.net" agent="Mozilla/5.0 (X11; Linux x86_64; rv:128.0) Gecko/20100101 Firefox/128.0" version="24.7.5" pages="2">
  <diagram name="Page-1" id="kKcQ4CuM9aCVBccUgKdu">
    <mxGraphModel dx="1194" dy="663" grid="1" gridSize="10" guides="1" tooltips="1" connect="1" arrows="1" fold="1" page="1" pageScale="1" pageWidth="850" pageHeight="1100" math="0" shadow="0">
      <root>
        <mxCell id="0" />
        <mxCell id="1" parent="0" />
        <mxCell id="tDkzWNkyZ2SAqoMp5uIW-1" value="" style="edgeStyle=none;curved=1;rounded=0;orthogonalLoop=1;jettySize=auto;html=1;fontSize=12;startSize=8;endSize=8;" edge="1" parent="1" source="tDkzWNkyZ2SAqoMp5uIW-2" target="tDkzWNkyZ2SAqoMp5uIW-4">
          <mxGeometry relative="1" as="geometry" />
        </mxCell>
        <object label="&lt;span style=&quot;font-size: 16px;&quot;&gt;Start&lt;/span&gt;" id="tDkzWNkyZ2SAqoMp5uIW-2">
          <mxCell style="ellipse;whiteSpace=wrap;html=1;" vertex="1" parent="1">
            <mxGeometry x="52" y="409" width="120" height="80" as="geometry" />
          </mxCell>
        </object>
        <mxCell id="tDkzWNkyZ2SAqoMp5uIW-3" style="edgeStyle=none;curved=1;rounded=0;orthogonalLoop=1;jettySize=auto;html=1;entryX=0.5;entryY=0;entryDx=0;entryDy=0;fontSize=12;startSize=8;endSize=8;" edge="1" parent="1" source="tDkzWNkyZ2SAqoMp5uIW-4" target="tDkzWNkyZ2SAqoMp5uIW-10">
          <mxGeometry relative="1" as="geometry" />
        </mxCell>
        <mxCell id="tDkzWNkyZ2SAqoMp5uIW-4" value="Please, think of an integer between 0 and 128" style="shape=display;whiteSpace=wrap;html=1;" vertex="1" parent="1">
          <mxGeometry x="42.5" y="526" width="139" height="59" as="geometry" />
        </mxCell>
        <mxCell id="tDkzWNkyZ2SAqoMp5uIW-5" style="edgeStyle=none;curved=1;rounded=0;orthogonalLoop=1;jettySize=auto;html=1;entryX=0.5;entryY=0;entryDx=0;entryDy=0;fontSize=12;startSize=8;endSize=8;" edge="1" parent="1" source="tDkzWNkyZ2SAqoMp5uIW-6" target="tDkzWNkyZ2SAqoMp5uIW-7">
          <mxGeometry relative="1" as="geometry" />
        </mxCell>
        <mxCell id="tDkzWNkyZ2SAqoMp5uIW-6" value="a=0 , b=128 , t=2" style="shape=hexagon;perimeter=hexagonPerimeter2;whiteSpace=wrap;html=1;fixedSize=1;" vertex="1" parent="1">
          <mxGeometry x="52" y="857" width="120" height="80" as="geometry" />
        </mxCell>
        <mxCell id="tDkzWNkyZ2SAqoMp5uIW-7" value="" style="shape=offPageConnector;whiteSpace=wrap;html=1;" vertex="1" parent="1">
          <mxGeometry x="72" y="999" width="80" height="80" as="geometry" />
        </mxCell>
        <mxCell id="tDkzWNkyZ2SAqoMp5uIW-8" style="edgeStyle=none;curved=1;rounded=0;orthogonalLoop=1;jettySize=auto;html=1;exitX=0.5;exitY=1;exitDx=0;exitDy=0;fontSize=12;startSize=8;endSize=8;" edge="1" parent="1" source="tDkzWNkyZ2SAqoMp5uIW-10" target="tDkzWNkyZ2SAqoMp5uIW-18">
          <mxGeometry relative="1" as="geometry" />
        </mxCell>
        <mxCell id="tDkzWNkyZ2SAqoMp5uIW-9" value="No" style="edgeLabel;html=1;align=center;verticalAlign=middle;resizable=0;points=[];fontSize=12;" vertex="1" connectable="0" parent="tDkzWNkyZ2SAqoMp5uIW-8">
          <mxGeometry x="-0.1547" y="-2" relative="1" as="geometry">
            <mxPoint as="offset" />
          </mxGeometry>
        </mxCell>
        <mxCell id="tDkzWNkyZ2SAqoMp5uIW-10" value="Is&amp;nbsp;&lt;span style=&quot;background-color: initial;&quot;&gt;M=128?&lt;/span&gt;" style="rhombus;whiteSpace=wrap;html=1;" vertex="1" parent="1">
          <mxGeometry x="72" y="630" width="80" height="80" as="geometry" />
        </mxCell>
        <mxCell id="tDkzWNkyZ2SAqoMp5uIW-11" style="edgeStyle=none;curved=1;rounded=0;orthogonalLoop=1;jettySize=auto;html=1;entryX=0;entryY=0.5;entryDx=0;entryDy=0;entryPerimeter=0;fontSize=12;startSize=8;endSize=8;" edge="1" parent="1" source="tDkzWNkyZ2SAqoMp5uIW-10" target="tDkzWNkyZ2SAqoMp5uIW-14">
          <mxGeometry relative="1" as="geometry">
            <mxPoint x="225" y="670" as="targetPoint" />
          </mxGeometry>
        </mxCell>
        <mxCell id="tDkzWNkyZ2SAqoMp5uIW-12" value="Yes" style="edgeLabel;html=1;align=center;verticalAlign=middle;resizable=0;points=[];fontSize=12;" vertex="1" connectable="0" parent="tDkzWNkyZ2SAqoMp5uIW-11">
          <mxGeometry x="-0.1258" y="-1" relative="1" as="geometry">
            <mxPoint as="offset" />
          </mxGeometry>
        </mxCell>
        <mxCell id="tDkzWNkyZ2SAqoMp5uIW-13" style="edgeStyle=none;curved=1;rounded=0;orthogonalLoop=1;jettySize=auto;html=1;fontSize=12;startSize=8;endSize=8;" edge="1" parent="1" source="tDkzWNkyZ2SAqoMp5uIW-14" target="tDkzWNkyZ2SAqoMp5uIW-15">
          <mxGeometry relative="1" as="geometry" />
        </mxCell>
        <mxCell id="tDkzWNkyZ2SAqoMp5uIW-14" value="The number you though is&lt;br&gt;&amp;nbsp;&quot;M&quot; and I guessed it in &quot;t&quot; attempts" style="shape=display;whiteSpace=wrap;html=1;" vertex="1" parent="1">
          <mxGeometry x="234.5" y="640" width="221" height="60" as="geometry" />
        </mxCell>
        <mxCell id="tDkzWNkyZ2SAqoMp5uIW-15" value="End" style="html=1;dashed=0;whiteSpace=wrap;shape=mxgraph.dfd.start" vertex="1" parent="1">
          <mxGeometry x="498" y="710" width="80" height="30" as="geometry" />
        </mxCell>
        <mxCell id="tDkzWNkyZ2SAqoMp5uIW-16" style="edgeStyle=none;curved=1;rounded=0;orthogonalLoop=1;jettySize=auto;html=1;fontSize=12;startSize=8;endSize=8;" edge="1" parent="1" source="tDkzWNkyZ2SAqoMp5uIW-18" target="tDkzWNkyZ2SAqoMp5uIW-6">
          <mxGeometry relative="1" as="geometry" />
        </mxCell>
        <mxCell id="tDkzWNkyZ2SAqoMp5uIW-17" value="No" style="edgeLabel;html=1;align=center;verticalAlign=middle;resizable=0;points=[];fontSize=12;" vertex="1" connectable="0" parent="tDkzWNkyZ2SAqoMp5uIW-16">
          <mxGeometry x="0.0441" y="-2" relative="1" as="geometry">
            <mxPoint as="offset" />
          </mxGeometry>
        </mxCell>
        <mxCell id="tDkzWNkyZ2SAqoMp5uIW-18" value="Is M=0" style="rhombus;whiteSpace=wrap;html=1;" vertex="1" parent="1">
          <mxGeometry x="72" y="737" width="80" height="80" as="geometry" />
        </mxCell>
        <mxCell id="tDkzWNkyZ2SAqoMp5uIW-19" value="The number you though is&lt;br&gt;&amp;nbsp;&quot;M&quot; and I guessed it in &quot;t&quot; attempts" style="shape=display;whiteSpace=wrap;html=1;" vertex="1" parent="1">
          <mxGeometry x="234.5" y="747" width="221" height="60" as="geometry" />
        </mxCell>
        <mxCell id="tDkzWNkyZ2SAqoMp5uIW-20" style="edgeStyle=none;curved=1;rounded=0;orthogonalLoop=1;jettySize=auto;html=1;entryX=0;entryY=0.5;entryDx=0;entryDy=0;entryPerimeter=0;fontSize=12;startSize=8;endSize=8;" edge="1" parent="1" source="tDkzWNkyZ2SAqoMp5uIW-18" target="tDkzWNkyZ2SAqoMp5uIW-19">
          <mxGeometry relative="1" as="geometry" />
        </mxCell>
        <mxCell id="tDkzWNkyZ2SAqoMp5uIW-21" value="Yes" style="edgeLabel;html=1;align=center;verticalAlign=middle;resizable=0;points=[];fontSize=12;" vertex="1" connectable="0" parent="tDkzWNkyZ2SAqoMp5uIW-20">
          <mxGeometry x="-0.2114" y="3" relative="1" as="geometry">
            <mxPoint as="offset" />
          </mxGeometry>
        </mxCell>
      </root>
    </mxGraphModel>
  </diagram>
  <diagram id="BjFqLUO0itqlUEsSAed2" name="Page-2">
    <mxGraphModel dx="2044" dy="663" grid="1" gridSize="10" guides="1" tooltips="1" connect="1" arrows="1" fold="1" page="1" pageScale="1" pageWidth="850" pageHeight="1100" math="0" shadow="0">
      <root>
        <mxCell id="0" />
        <mxCell id="1" parent="0" />
        <mxCell id="kl8HE9LVImuWU6EdJFub-1" style="edgeStyle=none;curved=1;rounded=0;orthogonalLoop=1;jettySize=auto;html=1;entryX=0.5;entryY=0;entryDx=0;entryDy=0;fontSize=12;startSize=8;endSize=8;" edge="1" parent="1" source="kl8HE9LVImuWU6EdJFub-2" target="kl8HE9LVImuWU6EdJFub-7">
          <mxGeometry relative="1" as="geometry" />
        </mxCell>
        <mxCell id="kl8HE9LVImuWU6EdJFub-2" value="M=(a+b)/2 ,&lt;br&gt;t = t+1" style="shape=process;whiteSpace=wrap;html=1;backgroundOutline=1;" vertex="1" parent="1">
          <mxGeometry x="152" y="315" width="120" height="60" as="geometry" />
        </mxCell>
        <mxCell id="kl8HE9LVImuWU6EdJFub-3" value="" style="edgeStyle=none;curved=1;rounded=0;orthogonalLoop=1;jettySize=auto;html=1;fontSize=12;startSize=8;endSize=8;" edge="1" parent="1" source="kl8HE9LVImuWU6EdJFub-7" target="kl8HE9LVImuWU6EdJFub-9">
          <mxGeometry relative="1" as="geometry" />
        </mxCell>
        <mxCell id="kl8HE9LVImuWU6EdJFub-4" value="Yes" style="edgeLabel;html=1;align=center;verticalAlign=middle;resizable=0;points=[];fontSize=12;" vertex="1" connectable="0" parent="kl8HE9LVImuWU6EdJFub-3">
          <mxGeometry x="-0.3208" y="-2" relative="1" as="geometry">
            <mxPoint as="offset" />
          </mxGeometry>
        </mxCell>
        <mxCell id="kl8HE9LVImuWU6EdJFub-5" value="" style="edgeStyle=none;curved=1;rounded=0;orthogonalLoop=1;jettySize=auto;html=1;fontSize=12;startSize=8;endSize=8;" edge="1" parent="1" source="kl8HE9LVImuWU6EdJFub-7" target="kl8HE9LVImuWU6EdJFub-14">
          <mxGeometry relative="1" as="geometry" />
        </mxCell>
        <mxCell id="kl8HE9LVImuWU6EdJFub-6" value="No" style="edgeLabel;html=1;align=center;verticalAlign=middle;resizable=0;points=[];fontSize=12;" vertex="1" connectable="0" parent="kl8HE9LVImuWU6EdJFub-5">
          <mxGeometry x="-0.5472" y="2" relative="1" as="geometry">
            <mxPoint as="offset" />
          </mxGeometry>
        </mxCell>
        <mxCell id="kl8HE9LVImuWU6EdJFub-7" value="Is M correct?" style="rhombus;whiteSpace=wrap;html=1;" vertex="1" parent="1">
          <mxGeometry x="172" y="434" width="80" height="80" as="geometry" />
        </mxCell>
        <mxCell id="kl8HE9LVImuWU6EdJFub-8" style="edgeStyle=none;curved=1;rounded=0;orthogonalLoop=1;jettySize=auto;html=1;fontSize=12;startSize=8;endSize=8;" edge="1" parent="1" source="kl8HE9LVImuWU6EdJFub-9" target="kl8HE9LVImuWU6EdJFub-10">
          <mxGeometry relative="1" as="geometry" />
        </mxCell>
        <mxCell id="kl8HE9LVImuWU6EdJFub-9" value="The number you though is&lt;br&gt;&amp;nbsp;&quot;M&quot; and I guessed it in &quot;t&quot; attempts" style="shape=display;whiteSpace=wrap;html=1;" vertex="1" parent="1">
          <mxGeometry x="305" y="444" width="221" height="60" as="geometry" />
        </mxCell>
        <mxCell id="kl8HE9LVImuWU6EdJFub-10" value="End" style="html=1;dashed=0;whiteSpace=wrap;shape=mxgraph.dfd.start" vertex="1" parent="1">
          <mxGeometry x="375.5" y="364" width="80" height="30" as="geometry" />
        </mxCell>
        <mxCell id="kl8HE9LVImuWU6EdJFub-11" value="" style="edgeStyle=none;curved=1;rounded=0;orthogonalLoop=1;jettySize=auto;html=1;fontSize=12;startSize=8;endSize=8;" edge="1" parent="1" source="kl8HE9LVImuWU6EdJFub-14" target="kl8HE9LVImuWU6EdJFub-16">
          <mxGeometry relative="1" as="geometry" />
        </mxCell>
        <mxCell id="kl8HE9LVImuWU6EdJFub-12" value="Yes" style="edgeLabel;html=1;align=center;verticalAlign=middle;resizable=0;points=[];fontSize=12;" vertex="1" connectable="0" parent="kl8HE9LVImuWU6EdJFub-11">
          <mxGeometry x="-0.0476" y="4" relative="1" as="geometry">
            <mxPoint as="offset" />
          </mxGeometry>
        </mxCell>
        <mxCell id="kl8HE9LVImuWU6EdJFub-13" value="" style="edgeStyle=none;curved=1;rounded=0;orthogonalLoop=1;jettySize=auto;html=1;fontSize=12;startSize=8;endSize=8;" edge="1" parent="1" source="kl8HE9LVImuWU6EdJFub-14" target="kl8HE9LVImuWU6EdJFub-22">
          <mxGeometry relative="1" as="geometry" />
        </mxCell>
        <mxCell id="kl8HE9LVImuWU6EdJFub-14" value="Is t=6?" style="rhombus;whiteSpace=wrap;html=1;" vertex="1" parent="1">
          <mxGeometry x="172" y="567" width="80" height="80" as="geometry" />
        </mxCell>
        <mxCell id="kl8HE9LVImuWU6EdJFub-15" style="edgeStyle=none;curved=1;rounded=0;orthogonalLoop=1;jettySize=auto;html=1;fontSize=12;startSize=8;endSize=8;" edge="1" parent="1" source="kl8HE9LVImuWU6EdJFub-16" target="kl8HE9LVImuWU6EdJFub-17">
          <mxGeometry relative="1" as="geometry" />
        </mxCell>
        <mxCell id="kl8HE9LVImuWU6EdJFub-16" value="Apologies, i haven&#39;t guessed your number after 8 tries. :&#39;-(" style="shape=display;whiteSpace=wrap;html=1;" vertex="1" parent="1">
          <mxGeometry x="305.5" y="577" width="221" height="60" as="geometry" />
        </mxCell>
        <mxCell id="kl8HE9LVImuWU6EdJFub-17" value="End" style="html=1;dashed=0;whiteSpace=wrap;shape=mxgraph.dfd.start" vertex="1" parent="1">
          <mxGeometry x="376" y="678" width="80" height="30" as="geometry" />
        </mxCell>
        <mxCell id="kl8HE9LVImuWU6EdJFub-18" value="" style="edgeStyle=none;curved=1;rounded=0;orthogonalLoop=1;jettySize=auto;html=1;fontSize=12;startSize=8;endSize=8;" edge="1" parent="1" source="kl8HE9LVImuWU6EdJFub-22" target="kl8HE9LVImuWU6EdJFub-24">
          <mxGeometry relative="1" as="geometry" />
        </mxCell>
        <mxCell id="kl8HE9LVImuWU6EdJFub-19" value="Yes" style="edgeLabel;html=1;align=center;verticalAlign=middle;resizable=0;points=[];fontSize=12;" vertex="1" connectable="0" parent="kl8HE9LVImuWU6EdJFub-18">
          <mxGeometry x="-0.1111" y="-5" relative="1" as="geometry">
            <mxPoint as="offset" />
          </mxGeometry>
        </mxCell>
        <mxCell id="kl8HE9LVImuWU6EdJFub-20" style="edgeStyle=orthogonalEdgeStyle;rounded=0;orthogonalLoop=1;jettySize=auto;html=1;entryX=0.5;entryY=1;entryDx=0;entryDy=0;fontSize=12;startSize=8;endSize=8;" edge="1" parent="1" source="kl8HE9LVImuWU6EdJFub-22" target="kl8HE9LVImuWU6EdJFub-29">
          <mxGeometry relative="1" as="geometry" />
        </mxCell>
        <mxCell id="kl8HE9LVImuWU6EdJFub-21" value="No" style="edgeLabel;html=1;align=center;verticalAlign=middle;resizable=0;points=[];fontSize=12;" vertex="1" connectable="0" parent="kl8HE9LVImuWU6EdJFub-20">
          <mxGeometry x="-0.4902" y="1" relative="1" as="geometry">
            <mxPoint as="offset" />
          </mxGeometry>
        </mxCell>
        <mxCell id="kl8HE9LVImuWU6EdJFub-22" value="Is M larger?" style="rhombus;whiteSpace=wrap;html=1;" vertex="1" parent="1">
          <mxGeometry x="19" y="567" width="80" height="80" as="geometry" />
        </mxCell>
        <mxCell id="kl8HE9LVImuWU6EdJFub-23" value="" style="edgeStyle=none;curved=1;rounded=0;orthogonalLoop=1;jettySize=auto;html=1;fontSize=12;startSize=8;endSize=8;" edge="1" parent="1" source="kl8HE9LVImuWU6EdJFub-24" target="kl8HE9LVImuWU6EdJFub-26">
          <mxGeometry relative="1" as="geometry" />
        </mxCell>
        <mxCell id="kl8HE9LVImuWU6EdJFub-24" value="b=M" style="whiteSpace=wrap;html=1;" vertex="1" parent="1">
          <mxGeometry x="-1" y="444" width="120" height="60" as="geometry" />
        </mxCell>
        <mxCell id="kl8HE9LVImuWU6EdJFub-25" value="" style="edgeStyle=none;curved=1;rounded=0;orthogonalLoop=1;jettySize=auto;html=1;fontSize=12;startSize=8;endSize=8;" edge="1" parent="1" source="kl8HE9LVImuWU6EdJFub-26" target="kl8HE9LVImuWU6EdJFub-2">
          <mxGeometry relative="1" as="geometry" />
        </mxCell>
        <mxCell id="kl8HE9LVImuWU6EdJFub-26" value="" style="ellipse;whiteSpace=wrap;html=1;" vertex="1" parent="1">
          <mxGeometry x="44" y="330" width="30" height="30" as="geometry" />
        </mxCell>
        <mxCell id="kl8HE9LVImuWU6EdJFub-27" value="" style="rounded=0;orthogonalLoop=1;jettySize=auto;html=1;fontSize=12;entryX=0;entryY=0.563;entryDx=0;entryDy=0;entryPerimeter=0;exitX=0.5;exitY=0;exitDx=0;exitDy=0;edgeStyle=elbowEdgeStyle;" edge="1" parent="1" source="kl8HE9LVImuWU6EdJFub-29" target="kl8HE9LVImuWU6EdJFub-26">
          <mxGeometry relative="1" as="geometry">
            <mxPoint x="-90" y="324" as="targetPoint" />
            <Array as="points">
              <mxPoint x="-88" y="394" />
            </Array>
          </mxGeometry>
        </mxCell>
        <mxCell id="kl8HE9LVImuWU6EdJFub-28" value="Text" style="edgeLabel;html=1;align=center;verticalAlign=middle;resizable=0;points=[];fontSize=12;" vertex="1" connectable="0" parent="kl8HE9LVImuWU6EdJFub-27">
          <mxGeometry x="-0.3464" relative="1" as="geometry">
            <mxPoint as="offset" />
          </mxGeometry>
        </mxCell>
        <mxCell id="kl8HE9LVImuWU6EdJFub-29" value="a=M" style="whiteSpace=wrap;html=1;" vertex="1" parent="1">
          <mxGeometry x="-149" y="444" width="120" height="60" as="geometry" />
        </mxCell>
        <mxCell id="kl8HE9LVImuWU6EdJFub-30" style="edgeStyle=none;curved=1;rounded=0;orthogonalLoop=1;jettySize=auto;html=1;exitX=1;exitY=0;exitDx=0;exitDy=0;fontSize=12;startSize=8;endSize=8;" edge="1" parent="1" source="kl8HE9LVImuWU6EdJFub-26" target="kl8HE9LVImuWU6EdJFub-26">
          <mxGeometry relative="1" as="geometry" />
        </mxCell>
        <mxCell id="kl8HE9LVImuWU6EdJFub-31" style="edgeStyle=none;curved=1;rounded=0;orthogonalLoop=1;jettySize=auto;html=1;fontSize=12;startSize=8;endSize=8;" edge="1" parent="1" source="kl8HE9LVImuWU6EdJFub-32" target="kl8HE9LVImuWU6EdJFub-2">
          <mxGeometry relative="1" as="geometry" />
        </mxCell>
        <mxCell id="kl8HE9LVImuWU6EdJFub-32" value="" style="shape=offPageConnector;whiteSpace=wrap;html=1;" vertex="1" parent="1">
          <mxGeometry x="172" y="157" width="80" height="80" as="geometry" />
        </mxCell>
      </root>
    </mxGraphModel>
  </diagram>
</mxfile>
